<mxfile host="app.diagrams.net" modified="2022-05-25T02:22:48.560Z" agent="5.0 (Windows NT 10.0; Win64; x64) AppleWebKit/537.36 (KHTML, like Gecko) Chrome/101.0.4951.67 Safari/537.36" etag="38zb70kkav5cluuzVi-K" version="18.1.1" type="github">
  <diagram id="hcwUn6pwrH8P3Y7RHEHD" name="Page-1">
    <mxGraphModel dx="2500" dy="2065" grid="1" gridSize="10" guides="1" tooltips="1" connect="1" arrows="1" fold="1" page="1" pageScale="1" pageWidth="827" pageHeight="1169" math="0" shadow="0">
      <root>
        <mxCell id="0" />
        <mxCell id="1" parent="0" />
        <mxCell id="CbmxhOywCWp4Zcsfm77f-44" value="" style="group" parent="1" vertex="1" connectable="0">
          <mxGeometry x="50" y="210" width="470" height="70" as="geometry" />
        </mxCell>
        <mxCell id="CbmxhOywCWp4Zcsfm77f-1" value="" style="rounded=0;whiteSpace=wrap;html=1;" parent="CbmxhOywCWp4Zcsfm77f-44" vertex="1">
          <mxGeometry width="470" height="70" as="geometry" />
        </mxCell>
        <mxCell id="CbmxhOywCWp4Zcsfm77f-42" value="" style="group" parent="CbmxhOywCWp4Zcsfm77f-44" vertex="1" connectable="0">
          <mxGeometry x="20" y="10" width="440" height="50" as="geometry" />
        </mxCell>
        <mxCell id="CbmxhOywCWp4Zcsfm77f-2" value="" style="rounded=0;whiteSpace=wrap;html=1;" parent="CbmxhOywCWp4Zcsfm77f-42" vertex="1">
          <mxGeometry width="24.89391796322489" height="20" as="geometry" />
        </mxCell>
        <mxCell id="CbmxhOywCWp4Zcsfm77f-3" value="" style="rounded=0;whiteSpace=wrap;html=1;" parent="CbmxhOywCWp4Zcsfm77f-42" vertex="1">
          <mxGeometry x="37.34087694483734" width="24.89391796322489" height="20" as="geometry" />
        </mxCell>
        <mxCell id="CbmxhOywCWp4Zcsfm77f-5" value="" style="rounded=0;whiteSpace=wrap;html=1;" parent="CbmxhOywCWp4Zcsfm77f-42" vertex="1">
          <mxGeometry x="74.68175388967468" width="24.89391796322489" height="20" as="geometry" />
        </mxCell>
        <mxCell id="CbmxhOywCWp4Zcsfm77f-6" value="" style="rounded=0;whiteSpace=wrap;html=1;" parent="CbmxhOywCWp4Zcsfm77f-42" vertex="1">
          <mxGeometry x="112.02263083451201" width="24.89391796322489" height="20" as="geometry" />
        </mxCell>
        <mxCell id="CbmxhOywCWp4Zcsfm77f-7" value="" style="rounded=0;whiteSpace=wrap;html=1;" parent="CbmxhOywCWp4Zcsfm77f-42" vertex="1">
          <mxGeometry x="149.36350777934936" width="24.89391796322489" height="20" as="geometry" />
        </mxCell>
        <mxCell id="CbmxhOywCWp4Zcsfm77f-8" value="" style="rounded=0;whiteSpace=wrap;html=1;" parent="CbmxhOywCWp4Zcsfm77f-42" vertex="1">
          <mxGeometry x="186.7043847241867" width="24.89391796322489" height="20" as="geometry" />
        </mxCell>
        <mxCell id="CbmxhOywCWp4Zcsfm77f-11" value="" style="rounded=0;whiteSpace=wrap;html=1;" parent="CbmxhOywCWp4Zcsfm77f-42" vertex="1">
          <mxGeometry x="228.4016973125884" width="24.89391796322489" height="20" as="geometry" />
        </mxCell>
        <mxCell id="CbmxhOywCWp4Zcsfm77f-12" value="" style="rounded=0;whiteSpace=wrap;html=1;" parent="CbmxhOywCWp4Zcsfm77f-42" vertex="1">
          <mxGeometry x="265.7425742574257" width="24.89391796322489" height="20" as="geometry" />
        </mxCell>
        <mxCell id="CbmxhOywCWp4Zcsfm77f-13" value="" style="rounded=0;whiteSpace=wrap;html=1;" parent="CbmxhOywCWp4Zcsfm77f-42" vertex="1">
          <mxGeometry x="303.08345120226306" width="24.89391796322489" height="20" as="geometry" />
        </mxCell>
        <mxCell id="CbmxhOywCWp4Zcsfm77f-14" value="" style="rounded=0;whiteSpace=wrap;html=1;" parent="CbmxhOywCWp4Zcsfm77f-42" vertex="1">
          <mxGeometry x="340.4243281471004" width="24.89391796322489" height="20" as="geometry" />
        </mxCell>
        <mxCell id="CbmxhOywCWp4Zcsfm77f-15" value="" style="rounded=0;whiteSpace=wrap;html=1;" parent="CbmxhOywCWp4Zcsfm77f-42" vertex="1">
          <mxGeometry x="377.76520509193773" width="24.89391796322489" height="20" as="geometry" />
        </mxCell>
        <mxCell id="CbmxhOywCWp4Zcsfm77f-28" value="" style="group" parent="CbmxhOywCWp4Zcsfm77f-42" vertex="1" connectable="0">
          <mxGeometry width="439.99999999999994" height="20" as="geometry" />
        </mxCell>
        <mxCell id="CbmxhOywCWp4Zcsfm77f-16" value="12" style="rounded=0;whiteSpace=wrap;html=1;" parent="CbmxhOywCWp4Zcsfm77f-28" vertex="1">
          <mxGeometry x="415.1060820367751" width="24.89391796322489" height="20" as="geometry" />
        </mxCell>
        <mxCell id="CbmxhOywCWp4Zcsfm77f-17" value="1" style="rounded=0;whiteSpace=wrap;html=1;" parent="CbmxhOywCWp4Zcsfm77f-28" vertex="1">
          <mxGeometry width="24.89391796322489" height="20" as="geometry" />
        </mxCell>
        <mxCell id="CbmxhOywCWp4Zcsfm77f-18" value="2" style="rounded=0;whiteSpace=wrap;html=1;" parent="CbmxhOywCWp4Zcsfm77f-28" vertex="1">
          <mxGeometry x="37.34087694483734" width="24.89391796322489" height="20" as="geometry" />
        </mxCell>
        <mxCell id="CbmxhOywCWp4Zcsfm77f-19" value="3" style="rounded=0;whiteSpace=wrap;html=1;" parent="CbmxhOywCWp4Zcsfm77f-28" vertex="1">
          <mxGeometry x="74.68175388967468" width="24.89391796322489" height="20" as="geometry" />
        </mxCell>
        <mxCell id="CbmxhOywCWp4Zcsfm77f-20" value="4" style="rounded=0;whiteSpace=wrap;html=1;" parent="CbmxhOywCWp4Zcsfm77f-28" vertex="1">
          <mxGeometry x="112.02263083451201" width="24.89391796322489" height="20" as="geometry" />
        </mxCell>
        <mxCell id="CbmxhOywCWp4Zcsfm77f-21" value="5" style="rounded=0;whiteSpace=wrap;html=1;" parent="CbmxhOywCWp4Zcsfm77f-28" vertex="1">
          <mxGeometry x="149.36350777934936" width="24.89391796322489" height="20" as="geometry" />
        </mxCell>
        <mxCell id="CbmxhOywCWp4Zcsfm77f-22" value="6" style="rounded=0;whiteSpace=wrap;html=1;" parent="CbmxhOywCWp4Zcsfm77f-28" vertex="1">
          <mxGeometry x="186.7043847241867" width="24.89391796322489" height="20" as="geometry" />
        </mxCell>
        <mxCell id="CbmxhOywCWp4Zcsfm77f-23" value="7" style="rounded=0;whiteSpace=wrap;html=1;" parent="CbmxhOywCWp4Zcsfm77f-28" vertex="1">
          <mxGeometry x="228.4016973125884" width="24.89391796322489" height="20" as="geometry" />
        </mxCell>
        <mxCell id="CbmxhOywCWp4Zcsfm77f-24" value="8" style="rounded=0;whiteSpace=wrap;html=1;" parent="CbmxhOywCWp4Zcsfm77f-28" vertex="1">
          <mxGeometry x="265.7425742574257" width="24.89391796322489" height="20" as="geometry" />
        </mxCell>
        <mxCell id="CbmxhOywCWp4Zcsfm77f-25" value="9" style="rounded=0;whiteSpace=wrap;html=1;" parent="CbmxhOywCWp4Zcsfm77f-28" vertex="1">
          <mxGeometry x="303.08345120226306" width="24.89391796322489" height="20" as="geometry" />
        </mxCell>
        <mxCell id="CbmxhOywCWp4Zcsfm77f-26" value="10" style="rounded=0;whiteSpace=wrap;html=1;" parent="CbmxhOywCWp4Zcsfm77f-28" vertex="1">
          <mxGeometry x="340.4243281471004" width="24.89391796322489" height="20" as="geometry" />
        </mxCell>
        <mxCell id="CbmxhOywCWp4Zcsfm77f-27" value="11" style="rounded=0;whiteSpace=wrap;html=1;" parent="CbmxhOywCWp4Zcsfm77f-28" vertex="1">
          <mxGeometry x="377.76520509193773" width="24.89391796322489" height="20" as="geometry" />
        </mxCell>
        <mxCell id="CbmxhOywCWp4Zcsfm77f-29" value="" style="group" parent="CbmxhOywCWp4Zcsfm77f-42" vertex="1" connectable="0">
          <mxGeometry y="30" width="439.99999999999994" height="20" as="geometry" />
        </mxCell>
        <mxCell id="CbmxhOywCWp4Zcsfm77f-30" value="24" style="rounded=0;whiteSpace=wrap;html=1;" parent="CbmxhOywCWp4Zcsfm77f-29" vertex="1">
          <mxGeometry x="415.1060820367751" width="24.89391796322489" height="20" as="geometry" />
        </mxCell>
        <mxCell id="CbmxhOywCWp4Zcsfm77f-31" value="13" style="rounded=0;whiteSpace=wrap;html=1;" parent="CbmxhOywCWp4Zcsfm77f-29" vertex="1">
          <mxGeometry width="24.89391796322489" height="20" as="geometry" />
        </mxCell>
        <mxCell id="CbmxhOywCWp4Zcsfm77f-32" value="14" style="rounded=0;whiteSpace=wrap;html=1;" parent="CbmxhOywCWp4Zcsfm77f-29" vertex="1">
          <mxGeometry x="37.34087694483734" width="24.89391796322489" height="20" as="geometry" />
        </mxCell>
        <mxCell id="CbmxhOywCWp4Zcsfm77f-33" value="15" style="rounded=0;whiteSpace=wrap;html=1;" parent="CbmxhOywCWp4Zcsfm77f-29" vertex="1">
          <mxGeometry x="74.68175388967468" width="24.89391796322489" height="20" as="geometry" />
        </mxCell>
        <mxCell id="CbmxhOywCWp4Zcsfm77f-34" value="16" style="rounded=0;whiteSpace=wrap;html=1;" parent="CbmxhOywCWp4Zcsfm77f-29" vertex="1">
          <mxGeometry x="112.02263083451201" width="24.89391796322489" height="20" as="geometry" />
        </mxCell>
        <mxCell id="CbmxhOywCWp4Zcsfm77f-35" value="17" style="rounded=0;whiteSpace=wrap;html=1;" parent="CbmxhOywCWp4Zcsfm77f-29" vertex="1">
          <mxGeometry x="149.36350777934936" width="24.89391796322489" height="20" as="geometry" />
        </mxCell>
        <mxCell id="CbmxhOywCWp4Zcsfm77f-36" value="18" style="rounded=0;whiteSpace=wrap;html=1;" parent="CbmxhOywCWp4Zcsfm77f-29" vertex="1">
          <mxGeometry x="186.7043847241867" width="24.89391796322489" height="20" as="geometry" />
        </mxCell>
        <mxCell id="CbmxhOywCWp4Zcsfm77f-37" value="19" style="rounded=0;whiteSpace=wrap;html=1;" parent="CbmxhOywCWp4Zcsfm77f-29" vertex="1">
          <mxGeometry x="228.4016973125884" width="24.89391796322489" height="20" as="geometry" />
        </mxCell>
        <mxCell id="CbmxhOywCWp4Zcsfm77f-38" value="20" style="rounded=0;whiteSpace=wrap;html=1;" parent="CbmxhOywCWp4Zcsfm77f-29" vertex="1">
          <mxGeometry x="265.7425742574257" width="24.89391796322489" height="20" as="geometry" />
        </mxCell>
        <mxCell id="CbmxhOywCWp4Zcsfm77f-39" value="21" style="rounded=0;whiteSpace=wrap;html=1;" parent="CbmxhOywCWp4Zcsfm77f-29" vertex="1">
          <mxGeometry x="303.08345120226306" width="24.89391796322489" height="20" as="geometry" />
        </mxCell>
        <mxCell id="CbmxhOywCWp4Zcsfm77f-40" value="22" style="rounded=0;whiteSpace=wrap;html=1;" parent="CbmxhOywCWp4Zcsfm77f-29" vertex="1">
          <mxGeometry x="340.4243281471004" width="24.89391796322489" height="20" as="geometry" />
        </mxCell>
        <mxCell id="CbmxhOywCWp4Zcsfm77f-41" value="23" style="rounded=0;whiteSpace=wrap;html=1;" parent="CbmxhOywCWp4Zcsfm77f-29" vertex="1">
          <mxGeometry x="377.76520509193773" width="24.89391796322489" height="20" as="geometry" />
        </mxCell>
        <mxCell id="CbmxhOywCWp4Zcsfm77f-45" value="1.209.147.82" style="rounded=0;whiteSpace=wrap;html=1;" parent="1" vertex="1">
          <mxGeometry x="20" y="40" width="220" height="30" as="geometry" />
        </mxCell>
        <mxCell id="CbmxhOywCWp4Zcsfm77f-60" value="" style="group" parent="1" vertex="1" connectable="0">
          <mxGeometry x="340" y="40" width="180" height="60" as="geometry" />
        </mxCell>
        <mxCell id="CbmxhOywCWp4Zcsfm77f-56" value="" style="group" parent="CbmxhOywCWp4Zcsfm77f-60" vertex="1" connectable="0">
          <mxGeometry width="180" height="60" as="geometry" />
        </mxCell>
        <mxCell id="CbmxhOywCWp4Zcsfm77f-47" value="" style="rounded=0;whiteSpace=wrap;html=1;" parent="CbmxhOywCWp4Zcsfm77f-56" vertex="1">
          <mxGeometry width="180" height="60" as="geometry" />
        </mxCell>
        <mxCell id="CbmxhOywCWp4Zcsfm77f-55" value="n2004" style="rounded=0;whiteSpace=wrap;html=1;" parent="CbmxhOywCWp4Zcsfm77f-56" vertex="1">
          <mxGeometry x="60" width="50" height="20" as="geometry" />
        </mxCell>
        <mxCell id="CbmxhOywCWp4Zcsfm77f-52" value="wan" style="rounded=0;whiteSpace=wrap;html=1;" parent="CbmxhOywCWp4Zcsfm77f-56" vertex="1">
          <mxGeometry x="10" y="20" width="25.263157894736842" height="30" as="geometry" />
        </mxCell>
        <mxCell id="CbmxhOywCWp4Zcsfm77f-48" value="1" style="rounded=0;whiteSpace=wrap;html=1;" parent="CbmxhOywCWp4Zcsfm77f-60" vertex="1">
          <mxGeometry x="43.68421052631584" y="20" width="25.263157894736842" height="30" as="geometry" />
        </mxCell>
        <mxCell id="CbmxhOywCWp4Zcsfm77f-49" value="2" style="rounded=0;whiteSpace=wrap;html=1;" parent="CbmxhOywCWp4Zcsfm77f-60" vertex="1">
          <mxGeometry x="77.36842105263156" y="20" width="25.263157894736842" height="30" as="geometry" />
        </mxCell>
        <mxCell id="CbmxhOywCWp4Zcsfm77f-50" value="3" style="rounded=0;whiteSpace=wrap;html=1;" parent="CbmxhOywCWp4Zcsfm77f-60" vertex="1">
          <mxGeometry x="111.0526315789474" y="20" width="25.263157894736842" height="30" as="geometry" />
        </mxCell>
        <mxCell id="CbmxhOywCWp4Zcsfm77f-51" value="4" style="rounded=0;whiteSpace=wrap;html=1;" parent="CbmxhOywCWp4Zcsfm77f-60" vertex="1">
          <mxGeometry x="144.73684210526312" y="20" width="25.263157894736842" height="30" as="geometry" />
        </mxCell>
        <mxCell id="CbmxhOywCWp4Zcsfm77f-46" style="edgeStyle=orthogonalEdgeStyle;rounded=0;orthogonalLoop=1;jettySize=auto;html=1;entryX=0;entryY=0.5;entryDx=0;entryDy=0;" parent="1" source="CbmxhOywCWp4Zcsfm77f-45" target="CbmxhOywCWp4Zcsfm77f-52" edge="1">
          <mxGeometry relative="1" as="geometry">
            <mxPoint x="440" y="80" as="targetPoint" />
            <Array as="points">
              <mxPoint x="300" y="55" />
              <mxPoint x="300" y="75" />
            </Array>
          </mxGeometry>
        </mxCell>
        <mxCell id="cH9onk-3xHeR2CsSSE4H-2" style="edgeStyle=orthogonalEdgeStyle;rounded=0;orthogonalLoop=1;jettySize=auto;html=1;exitX=1;exitY=0.5;exitDx=0;exitDy=0;entryX=0;entryY=0.5;entryDx=0;entryDy=0;" parent="1" source="CbmxhOywCWp4Zcsfm77f-62" target="CbmxhOywCWp4Zcsfm77f-65" edge="1">
          <mxGeometry relative="1" as="geometry" />
        </mxCell>
        <mxCell id="cH9onk-3xHeR2CsSSE4H-26" style="edgeStyle=orthogonalEdgeStyle;rounded=0;orthogonalLoop=1;jettySize=auto;html=1;exitX=0.5;exitY=1;exitDx=0;exitDy=0;entryX=0.75;entryY=0;entryDx=0;entryDy=0;" parent="1" source="CbmxhOywCWp4Zcsfm77f-62" target="CbmxhOywCWp4Zcsfm77f-55" edge="1">
          <mxGeometry relative="1" as="geometry" />
        </mxCell>
        <mxCell id="CbmxhOywCWp4Zcsfm77f-62" value="192.168.0.0/24 변환" style="rounded=1;whiteSpace=wrap;html=1;" parent="1" vertex="1">
          <mxGeometry x="349" y="-20" width="130" height="30" as="geometry" />
        </mxCell>
        <mxCell id="CbmxhOywCWp4Zcsfm77f-65" value="192.168.0.100 ~ 254&lt;br&gt;( dhcp&amp;nbsp;할당 범위 )" style="rounded=1;whiteSpace=wrap;html=1;" parent="1" vertex="1">
          <mxGeometry x="520" y="-20" width="130" height="30" as="geometry" />
        </mxCell>
        <mxCell id="CbmxhOywCWp4Zcsfm77f-68" value="" style="edgeStyle=orthogonalEdgeStyle;rounded=0;orthogonalLoop=1;jettySize=auto;html=1;entryX=0.5;entryY=1;entryDx=0;entryDy=0;" parent="1" source="CbmxhOywCWp4Zcsfm77f-66" target="CbmxhOywCWp4Zcsfm77f-31" edge="1">
          <mxGeometry relative="1" as="geometry">
            <Array as="points">
              <mxPoint x="82" y="310" />
              <mxPoint x="82" y="310" />
            </Array>
          </mxGeometry>
        </mxCell>
        <mxCell id="CbmxhOywCWp4Zcsfm77f-69" value="" style="edgeStyle=orthogonalEdgeStyle;rounded=0;orthogonalLoop=1;jettySize=auto;html=1;" parent="1" source="CbmxhOywCWp4Zcsfm77f-66" edge="1">
          <mxGeometry relative="1" as="geometry">
            <mxPoint x="120" y="270" as="targetPoint" />
            <Array as="points">
              <mxPoint x="120" y="300" />
              <mxPoint x="120" y="300" />
            </Array>
          </mxGeometry>
        </mxCell>
        <mxCell id="CbmxhOywCWp4Zcsfm77f-71" value="" style="edgeStyle=orthogonalEdgeStyle;rounded=0;orthogonalLoop=1;jettySize=auto;html=1;" parent="1" source="CbmxhOywCWp4Zcsfm77f-66" edge="1">
          <mxGeometry relative="1" as="geometry">
            <mxPoint x="160" y="270" as="targetPoint" />
            <Array as="points">
              <mxPoint x="160" y="310" />
              <mxPoint x="160" y="310" />
            </Array>
          </mxGeometry>
        </mxCell>
        <mxCell id="cH9onk-3xHeR2CsSSE4H-10" style="edgeStyle=orthogonalEdgeStyle;rounded=0;orthogonalLoop=1;jettySize=auto;html=1;entryX=0.5;entryY=1;entryDx=0;entryDy=0;" parent="1" source="CbmxhOywCWp4Zcsfm77f-66" target="CbmxhOywCWp4Zcsfm77f-36" edge="1">
          <mxGeometry relative="1" as="geometry">
            <Array as="points">
              <mxPoint x="269" y="290" />
              <mxPoint x="269" y="290" />
            </Array>
          </mxGeometry>
        </mxCell>
        <mxCell id="cH9onk-3xHeR2CsSSE4H-11" style="edgeStyle=orthogonalEdgeStyle;rounded=0;orthogonalLoop=1;jettySize=auto;html=1;entryX=0.5;entryY=1;entryDx=0;entryDy=0;" parent="1" source="CbmxhOywCWp4Zcsfm77f-66" target="CbmxhOywCWp4Zcsfm77f-34" edge="1">
          <mxGeometry relative="1" as="geometry">
            <Array as="points">
              <mxPoint x="194" y="290" />
              <mxPoint x="194" y="290" />
            </Array>
          </mxGeometry>
        </mxCell>
        <mxCell id="cH9onk-3xHeR2CsSSE4H-12" style="edgeStyle=orthogonalEdgeStyle;rounded=0;orthogonalLoop=1;jettySize=auto;html=1;entryX=0.5;entryY=1;entryDx=0;entryDy=0;" parent="1" source="CbmxhOywCWp4Zcsfm77f-66" target="CbmxhOywCWp4Zcsfm77f-35" edge="1">
          <mxGeometry relative="1" as="geometry">
            <Array as="points">
              <mxPoint x="232" y="300" />
              <mxPoint x="232" y="300" />
            </Array>
          </mxGeometry>
        </mxCell>
        <mxCell id="CbmxhOywCWp4Zcsfm77f-66" value="192.168.1.0/24 변환" style="rounded=1;whiteSpace=wrap;html=1;" parent="1" vertex="1">
          <mxGeometry x="70" y="320" width="213.08" height="30" as="geometry" />
        </mxCell>
        <mxCell id="CbmxhOywCWp4Zcsfm77f-72" value="" style="endArrow=classic;startArrow=classic;html=1;rounded=0;exitX=0;exitY=1;exitDx=0;exitDy=0;entryX=1;entryY=0;entryDx=0;entryDy=0;" parent="1" source="CbmxhOywCWp4Zcsfm77f-31" target="CbmxhOywCWp4Zcsfm77f-73" edge="1">
          <mxGeometry width="50" height="50" relative="1" as="geometry">
            <mxPoint x="440" y="330" as="sourcePoint" />
            <mxPoint x="280" y="360" as="targetPoint" />
          </mxGeometry>
        </mxCell>
        <mxCell id="CbmxhOywCWp4Zcsfm77f-73" value="192.168.0.0 -&amp;gt; 192.168.1.0&lt;br&gt;vlan 구성 ( 13 ~ 18)" style="rounded=1;whiteSpace=wrap;html=1;" parent="1" vertex="1">
          <mxGeometry x="-120" y="300" width="160" height="30" as="geometry" />
        </mxCell>
        <mxCell id="cH9onk-3xHeR2CsSSE4H-13" value="" style="group" parent="1" vertex="1" connectable="0">
          <mxGeometry x="530" y="40" width="180" height="60" as="geometry" />
        </mxCell>
        <mxCell id="cH9onk-3xHeR2CsSSE4H-14" value="" style="group" parent="cH9onk-3xHeR2CsSSE4H-13" vertex="1" connectable="0">
          <mxGeometry width="180" height="60" as="geometry" />
        </mxCell>
        <mxCell id="cH9onk-3xHeR2CsSSE4H-15" value="" style="rounded=0;whiteSpace=wrap;html=1;" parent="cH9onk-3xHeR2CsSSE4H-14" vertex="1">
          <mxGeometry width="180" height="60" as="geometry" />
        </mxCell>
        <mxCell id="cH9onk-3xHeR2CsSSE4H-16" value="hub" style="rounded=0;whiteSpace=wrap;html=1;" parent="cH9onk-3xHeR2CsSSE4H-14" vertex="1">
          <mxGeometry x="60" width="50" height="20" as="geometry" />
        </mxCell>
        <mxCell id="cH9onk-3xHeR2CsSSE4H-18" value="1" style="rounded=0;whiteSpace=wrap;html=1;" parent="cH9onk-3xHeR2CsSSE4H-14" vertex="1">
          <mxGeometry x="20.004210526315838" y="20" width="25.263157894736842" height="30" as="geometry" />
        </mxCell>
        <mxCell id="cH9onk-3xHeR2CsSSE4H-19" value="2" style="rounded=0;whiteSpace=wrap;html=1;" parent="cH9onk-3xHeR2CsSSE4H-14" vertex="1">
          <mxGeometry x="59.99842105263156" y="20" width="25.263157894736842" height="30" as="geometry" />
        </mxCell>
        <mxCell id="cH9onk-3xHeR2CsSSE4H-20" value="3" style="rounded=0;whiteSpace=wrap;html=1;" parent="cH9onk-3xHeR2CsSSE4H-14" vertex="1">
          <mxGeometry x="100.0026315789474" y="20" width="25.263157894736842" height="30" as="geometry" />
        </mxCell>
        <mxCell id="cH9onk-3xHeR2CsSSE4H-21" value="4" style="rounded=0;whiteSpace=wrap;html=1;" parent="cH9onk-3xHeR2CsSSE4H-13" vertex="1">
          <mxGeometry x="144.73684210526312" y="20" width="25.263157894736842" height="30" as="geometry" />
        </mxCell>
        <mxCell id="cH9onk-3xHeR2CsSSE4H-23" style="edgeStyle=orthogonalEdgeStyle;rounded=0;orthogonalLoop=1;jettySize=auto;html=1;exitX=0.5;exitY=1;exitDx=0;exitDy=0;entryX=0.5;entryY=1;entryDx=0;entryDy=0;" parent="1" source="CbmxhOywCWp4Zcsfm77f-51" target="cH9onk-3xHeR2CsSSE4H-18" edge="1">
          <mxGeometry relative="1" as="geometry">
            <mxPoint x="570" y="150" as="targetPoint" />
            <Array as="points">
              <mxPoint x="497" y="120" />
              <mxPoint x="563" y="120" />
            </Array>
          </mxGeometry>
        </mxCell>
        <mxCell id="cH9onk-3xHeR2CsSSE4H-24" style="edgeStyle=orthogonalEdgeStyle;rounded=0;orthogonalLoop=1;jettySize=auto;html=1;exitX=0.5;exitY=1;exitDx=0;exitDy=0;entryX=0.5;entryY=0;entryDx=0;entryDy=0;" parent="1" source="CbmxhOywCWp4Zcsfm77f-50" target="CbmxhOywCWp4Zcsfm77f-17" edge="1">
          <mxGeometry relative="1" as="geometry" />
        </mxCell>
      </root>
    </mxGraphModel>
  </diagram>
</mxfile>
